<svg xmlns="http://www.w3.org/2000/svg" viewBox="0 0 1600 420" preserveAspectRatio="xMidYMax slice"><g fill="#bcd3ab" stroke="#bcd3ab"><path d="M-40 394Q-46 350 -60 323" fill="none" stroke-width="2.6" stroke-linecap="round"/><circle cx="-63" cy="323" r="6.9"/><circle cx="-67" cy="323" r="4.7"/><circle cx="-63" cy="332" r="5.0"/><circle cx="-58" cy="323" r="6.2"/><path d="M-40 394Q-41 357 -44 333" fill="none" stroke-width="2.6" stroke-linecap="round"/><circle cx="-45" cy="333" r="6.4"/><circle cx="-43" cy="329" r="6.0"/><circle cx="-48" cy="334" r="4.7"/><circle cx="-46" cy="339" r="5.5"/><path d="M-40 394Q-32 344 -13 316" fill="none" stroke-width="2.6" stroke-linecap="round"/><circle cx="-11" cy="319" r="5.2"/><circle cx="-11" cy="321" r="4.3"/><circle cx="-5" cy="315" r="4.4"/><circle cx="-19" cy="314" r="4.2"/><path d="M-40 394Q-43 352 -49 325" fill="none" stroke-width="2.6" stroke-linecap="round"/><circle cx="-47" cy="325" r="6.8"/><circle cx="-47" cy="323" r="6.6"/><circle cx="-46" cy="333" r="6.2"/><circle cx="-41" cy="321" r="4.8"/><path d="M-40 394Q-30 361 -7 349" fill="none" stroke-width="2.6" stroke-linecap="round"/><circle cx="0" cy="356" r="4.4"/><circle cx="-14" cy="357" r="6.9"/><circle cx="-1" cy="353" r="6.3"/><circle cx="-11" cy="342" r="5.9"/><path d="M-40 394Q-27 340 4 316" fill="none" stroke-width="2.6" stroke-linecap="round"/><circle cx="4" cy="309" r="4.5"/><circle cx="3" cy="312" r="4.1"/><circle cx="-2" cy="317" r="4.4"/><circle cx="-3" cy="311" r="4.1"/><path d="M-40 394Q-30 342 -8 313" fill="none" stroke-width="2.6" stroke-linecap="round"/><circle cx="-14" cy="317" r="6.6"/><circle cx="-13" cy="312" r="6.6"/><circle cx="-3" cy="316" r="6.4"/><circle cx="-7" cy="312" r="6.1"/><ellipse cx="103" cy="342" rx="28" ry="22"/><ellipse cx="134" cy="359" rx="29" ry="23"/><ellipse cx="120" cy="341" rx="33" ry="26"/><ellipse cx="111" cy="369" rx="29" ry="23"/><ellipse cx="118" cy="351" rx="38" ry="30"/><ellipse cx="105" cy="340" rx="37" ry="29"/><ellipse cx="115" cy="367" rx="27" ry="22"/><ellipse cx="305" cy="365" rx="28" ry="22"/><ellipse cx="304" cy="370" rx="36" ry="29"/><ellipse cx="336" cy="353" rx="32" ry="26"/><ellipse cx="254" cy="359" rx="33" ry="26"/><ellipse cx="255" cy="342" rx="37" ry="29"/><ellipse cx="312" cy="368" rx="31" ry="25"/><ellipse cx="331" cy="372" rx="33" ry="27"/><ellipse cx="465" cy="367" rx="27" ry="22"/><ellipse cx="445" cy="365" rx="32" ry="25"/><ellipse cx="473" cy="349" rx="36" ry="29"/><ellipse cx="420" cy="367" rx="36" ry="29"/><ellipse cx="478" cy="349" rx="26" ry="21"/><ellipse cx="425" cy="366" rx="35" ry="28"/><ellipse cx="474" cy="363" rx="32" ry="25"/><ellipse cx="632" cy="353" rx="32" ry="25"/><ellipse cx="627" cy="364" rx="30" ry="24"/><ellipse cx="599" cy="346" rx="23" ry="19"/><ellipse cx="624" cy="365" rx="33" ry="26"/><ellipse cx="632" cy="371" rx="22" ry="18"/><ellipse cx="589" cy="344" rx="31" ry="25"/><ellipse cx="625" cy="370" rx="25" ry="20"/><path d="M740 394Q728 334 702 302" fill="none" stroke-width="2.6" stroke-linecap="round"/><circle cx="701" cy="301" r="5.5"/><circle cx="702" cy="304" r="4.8"/><circle cx="706" cy="299" r="4.7"/><circle cx="696" cy="299" r="4.6"/><path d="M740 394Q746 333 759 294" fill="none" stroke-width="2.6" stroke-linecap="round"/><circle cx="751" cy="289" r="6.4"/><circle cx="764" cy="287" r="6.8"/><circle cx="761" cy="297" r="5.0"/><circle cx="761" cy="292" r="4.7"/><path d="M740 394Q744 356 755 333" fill="none" stroke-width="2.6" stroke-linecap="round"/><circle cx="763" cy="342" r="4.5"/><circle cx="752" cy="337" r="6.3"/><circle cx="762" cy="335" r="4.5"/><circle cx="752" cy="328" r="4.1"/><path d="M740 394Q737 347 730 317" fill="none" stroke-width="2.6" stroke-linecap="round"/><circle cx="723" cy="318" r="5.2"/><circle cx="729" cy="313" r="5.9"/><circle cx="732" cy="321" r="4.6"/><circle cx="738" cy="314" r="4.8"/><path d="M740 394Q725 343 690 327" fill="none" stroke-width="2.6" stroke-linecap="round"/><circle cx="687" cy="324" r="6.3"/><circle cx="693" cy="329" r="5.7"/><circle cx="690" cy="332" r="6.4"/><circle cx="689" cy="330" r="6.9"/><path d="M915 394Q907 350 887 326" fill="none" stroke-width="2.6" stroke-linecap="round"/><circle cx="893" cy="319" r="6.8"/><circle cx="885" cy="327" r="4.8"/><circle cx="891" cy="319" r="6.3"/><circle cx="887" cy="329" r="4.5"/><path d="M915 394Q927 349 954 329" fill="none" stroke-width="2.6" stroke-linecap="round"/><circle cx="951" cy="337" r="4.4"/><circle cx="955" cy="332" r="4.1"/><circle cx="962" cy="330" r="6.2"/><circle cx="954" cy="333" r="4.3"/><path d="M915 394Q921 356 934 333" fill="none" stroke-width="2.6" stroke-linecap="round"/><circle cx="942" cy="327" r="5.3"/><circle cx="936" cy="326" r="6.5"/><circle cx="938" cy="330" r="5.6"/><circle cx="942" cy="329" r="4.2"/><path d="M915 394Q918 360 925 338" fill="none" stroke-width="2.6" stroke-linecap="round"/><circle cx="932" cy="335" r="6.1"/><circle cx="922" cy="345" r="5.0"/><circle cx="920" cy="333" r="4.7"/><circle cx="931" cy="346" r="4.7"/><path d="M915 394Q907 359 889 342" fill="none" stroke-width="2.6" stroke-linecap="round"/><circle cx="881" cy="339" r="5.1"/><circle cx="890" cy="346" r="6.8"/><circle cx="898" cy="347" r="4.8"/><circle cx="892" cy="347" r="4.2"/><path d="M915 394Q920 352 931 325" fill="none" stroke-width="2.6" stroke-linecap="round"/><circle cx="923" cy="330" r="4.7"/><circle cx="926" cy="331" r="6.2"/><circle cx="925" cy="329" r="6.8"/><circle cx="923" cy="325" r="5.1"/><path d="M1081 394Q1085 335 1095 297" fill="none" stroke-width="2.6" stroke-linecap="round"/><circle cx="1087" cy="296" r="7.0"/><circle cx="1087" cy="295" r="5.1"/><circle cx="1095" cy="301" r="5.1"/><circle cx="1093" cy="296" r="5.1"/><path d="M1081 394Q1088 338 1104 303" fill="none" stroke-width="2.6" stroke-linecap="round"/><circle cx="1105" cy="301" r="6.9"/><circle cx="1100" cy="307" r="6.2"/><circle cx="1104" cy="300" r="5.0"/><circle cx="1108" cy="312" r="6.8"/><path d="M1081 394Q1079 344 1075 310" fill="none" stroke-width="2.6" stroke-linecap="round"/><circle cx="1075" cy="307" r="6.5"/><circle cx="1077" cy="309" r="4.4"/><circle cx="1079" cy="304" r="6.3"/><circle cx="1067" cy="317" r="4.2"/><path d="M1081 394Q1065 337 1027 316" fill="none" stroke-width="2.6" stroke-linecap="round"/><circle cx="1030" cy="317" r="4.7"/><circle cx="1031" cy="312" r="6.8"/><circle cx="1032" cy="322" r="6.9"/><circle cx="1036" cy="323" r="4.0"/><path d="M1081 394Q1077 356 1069 332" fill="none" stroke-width="2.6" stroke-linecap="round"/><circle cx="1067" cy="338" r="6.5"/><circle cx="1070" cy="330" r="4.2"/><circle cx="1072" cy="330" r="5.3"/><circle cx="1060" cy="338" r="4.5"/><path d="M1081 394Q1072 348 1051 323" fill="none" stroke-width="2.6" stroke-linecap="round"/><circle cx="1044" cy="323" r="6.7"/><circle cx="1051" cy="317" r="5.5"/><circle cx="1055" cy="331" r="6.0"/><circle cx="1060" cy="328" r="5.7"/><path d="M1081 394Q1091 336 1115 304" fill="none" stroke-width="2.6" stroke-linecap="round"/><circle cx="1122" cy="300" r="6.8"/><circle cx="1116" cy="309" r="6.1"/><circle cx="1109" cy="306" r="4.1"/><circle cx="1115" cy="301" r="4.2"/><path d="M1220 394Q1214 360 1200 341" fill="none" stroke-width="2.6" stroke-linecap="round"/><circle cx="1203" cy="346" r="5.2"/><circle cx="1192" cy="348" r="6.7"/><circle cx="1204" cy="349" r="4.1"/><circle cx="1191" cy="343" r="6.3"/><path d="M1220 394Q1215 349 1204 320" fill="none" stroke-width="2.6" stroke-linecap="round"/><circle cx="1201" cy="328" r="6.9"/><circle cx="1201" cy="317" r="6.9"/><circle cx="1204" cy="323" r="5.1"/><circle cx="1196" cy="321" r="5.7"/><path d="M1220 394Q1223 359 1228 336" fill="none" stroke-width="2.6" stroke-linecap="round"/><circle cx="1229" cy="334" r="4.3"/><circle cx="1234" cy="331" r="4.8"/><circle cx="1225" cy="344" r="6.2"/><circle cx="1221" cy="344" r="5.8"/><path d="M1220 394Q1230 351 1254 330" fill="none" stroke-width="2.6" stroke-linecap="round"/><circle cx="1246" cy="326" r="5.1"/><circle cx="1248" cy="331" r="4.7"/><circle cx="1251" cy="331" r="4.5"/><circle cx="1254" cy="332" r="6.9"/><path d="M1220 394Q1220 353 1221 326" fill="none" stroke-width="2.6" stroke-linecap="round"/><circle cx="1218" cy="323" r="6.9"/><circle cx="1215" cy="325" r="7.0"/><circle cx="1218" cy="321" r="4.3"/><circle cx="1217" cy="324" r="4.7"/><path d="M1220 394Q1219 365 1218 346" fill="none" stroke-width="2.6" stroke-linecap="round"/><circle cx="1225" cy="341" r="6.9"/><circle cx="1223" cy="347" r="4.2"/><circle cx="1222" cy="349" r="4.1"/><circle cx="1227" cy="351" r="4.2"/><path d="M1220 394Q1224 360 1234 338" fill="none" stroke-width="2.6" stroke-linecap="round"/><circle cx="1225" cy="346" r="5.6"/><circle cx="1227" cy="335" r="5.4"/><circle cx="1229" cy="341" r="6.1"/><circle cx="1238" cy="336" r="4.2"/><ellipse cx="1382" cy="351" rx="17" ry="10" transform="rotate(73 1382 351)"/><ellipse cx="1392" cy="367" rx="17" ry="10" transform="rotate(85 1392 367)"/><ellipse cx="1365" cy="364" rx="17" ry="10" transform="rotate(43 1365 364)"/><ellipse cx="1400" cy="365" rx="17" ry="10" transform="rotate(103 1400 365)"/><ellipse cx="1383" cy="352" rx="17" ry="10" transform="rotate(75 1383 352)"/><ellipse cx="1425" cy="361" rx="17" ry="10" transform="rotate(136 1425 361)"/><ellipse cx="1382" cy="361" rx="17" ry="10" transform="rotate(68 1382 361)"/><ellipse cx="1376" cy="359" rx="17" ry="10" transform="rotate(61 1376 359)"/><ellipse cx="1407" cy="361" rx="17" ry="10" transform="rotate(114 1407 361)"/><ellipse cx="1534" cy="380" rx="13" ry="8" transform="rotate(42 1534 380)"/><ellipse cx="1518" cy="367" rx="13" ry="8" transform="rotate(39 1518 367)"/><ellipse cx="1545" cy="372" rx="13" ry="8" transform="rotate(81 1545 372)"/><ellipse cx="1573" cy="369" rx="13" ry="8" transform="rotate(138 1573 369)"/><ellipse cx="1521" cy="346" rx="13" ry="8" transform="rotate(58 1521 346)"/><ellipse cx="1537" cy="386" rx="13" ry="8" transform="rotate(34 1537 386)"/><ellipse cx="1584" cy="375" rx="13" ry="8" transform="rotate(154 1584 375)"/><ellipse cx="1541" cy="372" rx="13" ry="8" transform="rotate(70 1541 372)"/><ellipse cx="1530" cy="370" rx="13" ry="8" transform="rotate(51 1530 370)"/><path d="M0 420V398Q100 391 200 394Q300 386 400 398Q500 384 600 395Q700 388 800 395Q900 388 1000 395Q1100 390 1200 399Q1300 383 1400 392Q1500 388 1600 399V420Z" stroke="none"/></g></svg>