<svg xmlns="http://www.w3.org/2000/svg" viewBox="0 0 1600 520" preserveAspectRatio="xMidYMax slice"><style>.b{animation:b 2.6s steps(1) infinite}@keyframes b{50%{opacity:.15}}.f{animation:f 12s ease-in-out infinite}@keyframes f{0%,100%{opacity:1}45%{opacity:0}55%{opacity:0}}@media (prefers-reduced-motion:reduce){.b,.f{animation:none}}</style><g fill="#06070f"><rect x="-20" y="387" width="74" height="133"/><rect x="58" y="433" width="109" height="87"/><rect x="168" y="431" width="118" height="89"/><rect x="292" y="400" width="96" height="120"/><rect x="394" y="376" width="122" height="144"/><path d="M521 520V327L586 309L652 327V520Z"/><rect x="657" y="366" width="170" height="154"/><path d="M829 520V381H848V351H884V381H903V520Z"/><path d="M908 520V427L976 409L1045 427V520Z"/><path d="M1046 520V367L1122 349L1198 367V520Z"/><path d="M1201 520V358L1246 340L1291 358V520Z"/><rect x="1297" y="460" width="74" height="60"/><rect x="1377" y="392" width="121" height="128"/><rect x="1502" y="375" width="81" height="145"/><rect x="1583" y="384" width="87" height="136"/></g><g><rect x="-14" y="414" width="4" height="6" fill="#ffcf8a" fill-opacity="0.45"/><rect x="36" y="414" width="4" height="6" fill="#ffbf7a" fill-opacity="0.12"/><rect x="6" y="440" width="4" height="6" fill="#ffbf7a" fill-opacity="0.12"/><rect x="26" y="479" width="4" height="6" fill="#ffcf8a" fill-opacity="0.6"/><rect x="6" y="505" width="4" height="6" fill="#ffbf7a" fill-opacity="0.45"/><rect x="134" y="447" width="4" height="6" fill="#ffbf7a" fill-opacity="0.3"/><rect x="74" y="499" width="4" height="6" fill="#ffbf7a" fill-opacity="0.6"/><rect x="124" y="499" width="4" height="6" fill="#ffbf7a" fill-opacity="0.2"/><rect x="224" y="445" width="4" height="6" fill="#ffcf8a" fill-opacity="0.3"/><rect x="174" y="484" width="4" height="6" fill="#ffbf7a" fill-opacity="0.12"/><rect x="338" y="453" width="4" height="6" fill="#ffcf8a" fill-opacity="0.6"/><rect x="378" y="453" width="4" height="6" fill="#ffcf8a" fill-opacity="0.45"/><rect x="318" y="479" width="4" height="6" fill="#ffcf8a" fill-opacity="0.6"/><rect x="368" y="479" width="4" height="6" fill="#ffbf7a" fill-opacity="0.12"/><rect x="328" y="492" width="4" height="6" fill="#ffbf7a" fill-opacity="0.12"/><rect class="f" x="450" y="390" width="4" height="6" fill="#ffcf8a" fill-opacity="0.2" style="animation-delay:11.6s;animation-duration:18.8s"/><rect class="f" x="460" y="403" width="4" height="6" fill="#ffcf8a" fill-opacity="0.3" style="animation-delay:1.7s;animation-duration:8.2s"/><rect x="410" y="429" width="4" height="6" fill="#ffbf7a" fill-opacity="0.12"/><rect x="420" y="429" width="4" height="6" fill="#ffcf8a" fill-opacity="0.45"/><rect x="410" y="481" width="4" height="6" fill="#ffbf7a" fill-opacity="0.12"/><rect x="490" y="481" width="4" height="6" fill="#ffcf8a" fill-opacity="0.2"/><rect class="f" x="400" y="494" width="4" height="6" fill="#ffbf7a" fill-opacity="0.6" style="animation-delay:14.2s;animation-duration:9.8s"/><rect x="460" y="494" width="4" height="6" fill="#ffcf8a" fill-opacity="0.12"/><rect x="537" y="349" width="4" height="6" fill="#ffcf8a" fill-opacity="0.3"/><rect x="567" y="362" width="4" height="6" fill="#ffbf7a" fill-opacity="0.3"/><rect x="627" y="362" width="4" height="6" fill="#ffbf7a" fill-opacity="0.45"/><rect x="527" y="375" width="4" height="6" fill="#ffcf8a" fill-opacity="0.6"/><rect x="577" y="375" width="4" height="6" fill="#ffbf7a" fill-opacity="0.12"/><rect x="527" y="401" width="4" height="6" fill="#ffcf8a" fill-opacity="0.12"/><rect x="627" y="401" width="4" height="6" fill="#ffbf7a" fill-opacity="0.2"/><rect x="557" y="414" width="4" height="6" fill="#ffbf7a" fill-opacity="0.45"/><rect x="577" y="440" width="4" height="6" fill="#ffbf7a" fill-opacity="0.6"/><rect x="597" y="440" width="4" height="6" fill="#ffcf8a" fill-opacity="0.6"/><rect class="f" x="567" y="466" width="4" height="6" fill="#ffbf7a" fill-opacity="0.12" style="animation-delay:6.0s;animation-duration:9.2s"/><rect x="607" y="466" width="4" height="6" fill="#ffcf8a" fill-opacity="0.3"/><rect x="587" y="479" width="4" height="6" fill="#ffcf8a" fill-opacity="0.12"/><rect x="547" y="492" width="4" height="6" fill="#ffcf8a" fill-opacity="0.3"/><rect x="637" y="505" width="4" height="6" fill="#ffcf8a" fill-opacity="0.12"/><rect x="703" y="380" width="4" height="6" fill="#ffcf8a" fill-opacity="0.45"/><rect class="f" x="773" y="380" width="4" height="6" fill="#ffcf8a" fill-opacity="0.3" style="animation-delay:6.6s;animation-duration:16.2s"/><rect x="673" y="393" width="4" height="6" fill="#ffbf7a" fill-opacity="0.3"/><rect x="803" y="393" width="4" height="6" fill="#ffcf8a" fill-opacity="0.2"/><rect class="f" x="743" y="406" width="4" height="6" fill="#ffbf7a" fill-opacity="0.45" style="animation-delay:3.5s;animation-duration:15.0s"/><rect x="783" y="419" width="4" height="6" fill="#ffbf7a" fill-opacity="0.12"/><rect x="743" y="432" width="4" height="6" fill="#ffcf8a" fill-opacity="0.6"/><rect x="663" y="445" width="4" height="6" fill="#ffbf7a" fill-opacity="0.6"/><rect x="693" y="445" width="4" height="6" fill="#ffbf7a" fill-opacity="0.12"/><rect x="713" y="445" width="4" height="6" fill="#ffcf8a" fill-opacity="0.6"/><rect x="703" y="471" width="4" height="6" fill="#ffbf7a" fill-opacity="0.6"/><rect x="723" y="471" width="4" height="6" fill="#ffcf8a" fill-opacity="0.6"/><rect x="783" y="471" width="4" height="6" fill="#ffcf8a" fill-opacity="0.3"/><rect class="f" x="793" y="471" width="4" height="6" fill="#ffbf7a" fill-opacity="0.2" style="animation-delay:18.3s;animation-duration:14.0s"/><rect class="f" x="683" y="484" width="4" height="6" fill="#ffbf7a" fill-opacity="0.12" style="animation-delay:14.0s;animation-duration:20.3s"/><rect x="855" y="404" width="4" height="6" fill="#ffcf8a" fill-opacity="0.45"/><rect x="835" y="443" width="4" height="6" fill="#ffcf8a" fill-opacity="0.3"/><rect x="865" y="469" width="4" height="6" fill="#ffcf8a" fill-opacity="0.45"/><rect class="f" x="835" y="482" width="4" height="6" fill="#ffbf7a" fill-opacity="0.12" style="animation-delay:2.8s;animation-duration:8.1s"/><rect x="984" y="423" width="4" height="6" fill="#ffbf7a" fill-opacity="0.12"/><rect x="954" y="449" width="4" height="6" fill="#ffcf8a" fill-opacity="0.45"/><rect x="924" y="462" width="4" height="6" fill="#ffcf8a" fill-opacity="0.12"/><rect x="944" y="462" width="4" height="6" fill="#ffbf7a" fill-opacity="0.45"/><rect x="964" y="462" width="4" height="6" fill="#ffbf7a" fill-opacity="0.3"/><rect x="944" y="475" width="4" height="6" fill="#ffbf7a" fill-opacity="0.12"/><rect x="1004" y="475" width="4" height="6" fill="#ffcf8a" fill-opacity="0.3"/><rect x="1052" y="376" width="4" height="6" fill="#ffbf7a" fill-opacity="0.45"/><rect x="1162" y="389" width="4" height="6" fill="#ffbf7a" fill-opacity="0.45"/><rect x="1142" y="402" width="4" height="6" fill="#ffcf8a" fill-opacity="0.6"/><rect x="1182" y="402" width="4" height="6" fill="#ffbf7a" fill-opacity="0.6"/><rect x="1062" y="441" width="4" height="6" fill="#ffcf8a" fill-opacity="0.2"/><rect x="1122" y="480" width="4" height="6" fill="#ffcf8a" fill-opacity="0.3"/><rect x="1227" y="471" width="4" height="6" fill="#ffbf7a" fill-opacity="0.3"/><rect x="1313" y="487" width="4" height="6" fill="#ffbf7a" fill-opacity="0.6"/><rect x="1463" y="406" width="4" height="6" fill="#ffbf7a" fill-opacity="0.12"/><rect x="1483" y="406" width="4" height="6" fill="#ffbf7a" fill-opacity="0.45"/><rect x="1403" y="432" width="4" height="6" fill="#ffbf7a" fill-opacity="0.12"/><rect x="1393" y="458" width="4" height="6" fill="#ffbf7a" fill-opacity="0.3"/><rect x="1453" y="458" width="4" height="6" fill="#ffbf7a" fill-opacity="0.45"/><rect class="f" x="1423" y="471" width="4" height="6" fill="#ffcf8a" fill-opacity="0.6" style="animation-delay:9.3s;animation-duration:21.3s"/><rect x="1453" y="484" width="4" height="6" fill="#ffbf7a" fill-opacity="0.45"/><rect x="1538" y="428" width="4" height="6" fill="#ffcf8a" fill-opacity="0.2"/><rect x="1558" y="428" width="4" height="6" fill="#ffcf8a" fill-opacity="0.2"/><rect x="1538" y="467" width="4" height="6" fill="#ffbf7a" fill-opacity="0.6"/><rect class="f" x="1528" y="506" width="4" height="6" fill="#ffcf8a" fill-opacity="0.6" style="animation-delay:18.5s;animation-duration:14.2s"/><rect x="1589" y="411" width="4" height="6" fill="#ffbf7a" fill-opacity="0.3"/><rect x="1599" y="463" width="4" height="6" fill="#ffbf7a" fill-opacity="0.6"/><rect class="f" x="1609" y="489" width="4" height="6" fill="#ffcf8a" fill-opacity="0.3" style="animation-delay:9.1s;animation-duration:13.0s"/></g></svg>