<svg xmlns="http://www.w3.org/2000/svg" viewBox="0 0 900 500" preserveAspectRatio="xMidYMid slice">
<defs><linearGradient id="sky" x1="0" y1="0" x2="0" y2="1"><stop offset="0" stop-color="#d6e2ea"/><stop offset="1" stop-color="#fbf5ea"/></linearGradient></defs>
<rect width="900" height="500" fill="url(#sky)"/><circle cx="738.0" cy="100.0" r="46.0" fill="#fff" opacity=".8"/><g opacity="0.85" fill="#fff"><circle cx="126.00000000000001" cy="90.0" r="24.0"/><circle cx="156.0" cy="80.0" r="30.0"/><circle cx="186.0" cy="90.0" r="22.0"/><rect x="102.00000000000001" y="90.0" width="108.0" height="24.0" rx="12.0"/></g><g opacity="0.7" fill="#fff"><circle cx="576.0" cy="60.0" r="16.799999999999997"/><circle cx="597.0" cy="53.0" r="21.0"/><circle cx="618.0" cy="60.0" r="15.399999999999999"/><rect x="559.2" y="60.0" width="75.6" height="16.799999999999997" rx="8.399999999999999"/></g><path d="M0 380.0 Q180.0 330.0 405.0 370.0 T900 360.0 V500 H0Z" fill="#9db6a0"/><path d="M0 416.0 Q270.0 380.0 540.0 414.0 T900 406.0 V500 H0Z" fill="#6d9a6e"/><rect y="440.0" width="900" height="60.0" fill="#4f7a5a"/><rect y="467.0" width="900" height="33.0" fill="#c8b99a"/><rect x="260.0" y="270.0" width="380.0" height="170.0" fill="#e9e1d3"/><rect x="252.0" y="254.0" width="396.0" height="16.0" fill="#3a424b"/><rect x="252.0" y="244.0" width="396.0" height="10.0" fill="#7d7468"/><rect x="298.0" y="300.6" width="53.2" height="71.39999999999999" rx="3" fill="#2b3138"/><rect x="301.0" y="303.6" width="47.2" height="65.39999999999999" rx="2" fill="#ecb98a"/><line x1="324.6" y1="303.6" x2="324.6" y2="369.0" stroke="#2b3138" stroke-width="2"/><rect x="381.6" y="300.6" width="53.2" height="71.39999999999999" rx="3" fill="#2b3138"/><rect x="384.6" y="303.6" width="47.2" height="65.39999999999999" rx="2" fill="#ecb98a"/><line x1="408.20000000000005" y1="303.6" x2="408.20000000000005" y2="369.0" stroke="#2b3138" stroke-width="2"/><rect x="465.20000000000005" y="300.6" width="53.2" height="71.39999999999999" rx="3" fill="#2b3138"/><rect x="468.20000000000005" y="303.6" width="47.2" height="65.39999999999999" rx="2" fill="#ecb98a"/><line x1="491.80000000000007" y1="303.6" x2="491.80000000000007" y2="369.0" stroke="#2b3138" stroke-width="2"/><rect x="548.8" y="300.6" width="53.2" height="71.39999999999999" rx="3" fill="#2b3138"/><rect x="551.8" y="303.6" width="47.2" height="65.39999999999999" rx="2" fill="#ecb98a"/><line x1="575.4" y1="303.6" x2="575.4" y2="369.0" stroke="#2b3138" stroke-width="2"/><rect x="432.0" y="363.5" width="36.0" height="76.5" fill="#9c3220"/><rect x="336.0" y="222.0" width="44.0" height="22.0" rx="11.0" fill="#2b3138"/><ellipse cx="336.0" cy="233.0" rx="5.0" ry="11.0" fill="#4d5862"/><rect x="396.0" y="222.0" width="44.0" height="22.0" rx="11.0" fill="#2b3138"/><ellipse cx="396.0" cy="233.0" rx="5.0" ry="11.0" fill="#4d5862"/><rect x="456.0" y="222.0" width="44.0" height="22.0" rx="11.0" fill="#2b3138"/><ellipse cx="456.0" cy="233.0" rx="5.0" ry="11.0" fill="#4d5862"/><g><rect x="543.8" y="203.7" width="10.6" height="42.3" rx="5.3" fill="#3a424b"/><rect x="558.4" y="203.7" width="10.6" height="42.3" rx="5.3" fill="#3a424b"/><rect x="542.6" y="178.2" width="27.6" height="31.4" rx="7.7" fill="#d98a4a"/><line x1="545.8" y1="184.7" x2="543.8" y2="207.7" stroke="#d98a4a" stroke-width="6.4" stroke-linecap="round"/><line x1="567.0" y1="184.7" x2="569.0" y2="207.7" stroke="#d98a4a" stroke-width="6.4" stroke-linecap="round"/><circle cx="556.4" cy="164.1" r="10.1" fill="#e8b98f"/><path d="M544.5 163.6 a11.9 11.9 0 0 1 23.9 0z" fill="#ffb000"/><rect x="542.2" y="162.9" width="28.3" height="2.2" rx="1.0" fill="#ffb000"/></g><rect x="162.0" y="340.0" width="16.0" height="100.0" fill="#6b4a2b"/><circle cx="170.0" cy="308.0" r="60.0" fill="#4f7a5a" opacity="1"/><circle cx="130.0" cy="328.0" r="42.0" fill="#4f7a5a" opacity="1"/><circle cx="210.0" cy="328.0" r="42.0" fill="#4f7a5a" opacity="1"/><circle cx="158.0" cy="288.0" r="34.0" fill="#6d9a6e" opacity="0.5"/><rect x="743.2" y="355.0" width="13.6" height="85.0" fill="#6b4a2b"/><circle cx="750.0" cy="327.8" r="51.0" fill="#4f7a5a" opacity="1"/><circle cx="716.0" cy="344.8" r="35.7" fill="#4f7a5a" opacity="1"/><circle cx="784.0" cy="344.8" r="35.7" fill="#4f7a5a" opacity="1"/><circle cx="739.8" cy="310.8" r="28.9" fill="#6d9a6e" opacity="0.5"/>
</svg>
