<svg xmlns="http://www.w3.org/2000/svg" viewBox="0 0 800 600" preserveAspectRatio="xMidYMid slice">
<defs><linearGradient id="sky" x1="0" y1="0" x2="0" y2="1"><stop offset="0" stop-color="#f1c9a0"/><stop offset="1" stop-color="#efe3cf"/></linearGradient><pattern id="tl" width="22" height="14" patternUnits="userSpaceOnUse"><path d="M0 14 q11 -14 22 0" fill="none" stroke="#7d2f1d" stroke-width="2" opacity=".55"/></pattern></defs>
<rect width="800" height="600" fill="url(#sky)"/><circle cx="656.0" cy="120.0" r="55.2" fill="#fff" opacity=".8"/><g opacity="0.85" fill="#fff"><circle cx="112.00000000000001" cy="108.0" r="28.799999999999997"/><circle cx="148.0" cy="96.0" r="36.0"/><circle cx="184.0" cy="108.0" r="26.4"/><rect x="83.20000000000002" y="108.0" width="129.6" height="28.799999999999997" rx="14.399999999999999"/></g><g opacity="0.7" fill="#fff"><circle cx="512.0" cy="72.0" r="20.16"/><circle cx="537.2" cy="63.6" r="25.2"/><circle cx="562.4" cy="72.0" r="18.48"/><rect x="491.84" y="72.0" width="90.72" height="20.16" rx="10.08"/></g><path d="M0 456.0 Q160.0 396.0 360.0 444.0 T800 432.0 V600 H0Z" fill="#9db6a0"/><path d="M0 499.2 Q240.0 456.0 480.0 496.8 T800 487.2 V600 H0Z" fill="#7fae5f"/><rect y="528.0" width="800" height="72.0" fill="#5c8f45"/><rect y="560.4" width="800" height="39.6" fill="#c8b99a"/><rect x="202.0" y="348.0" width="396.0" height="180.0" fill="#f3ead8"/><rect x="202.0" y="513.6" width="396.0" height="14.4" fill="#e4d3b5"/><rect x="242.26" y="384.0" width="51.480000000000004" height="61.2" rx="3" fill="#2b3138"/><rect x="245.26" y="387.0" width="45.480000000000004" height="55.2" rx="2" fill="#ecb98a"/><line x1="268.0" y1="387.0" x2="268.0" y2="442.2" stroke="#2b3138" stroke-width="2"/><rect x="506.26" y="384.0" width="51.480000000000004" height="61.2" rx="3" fill="#2b3138"/><rect x="509.26" y="387.0" width="45.480000000000004" height="55.2" rx="2" fill="#ecb98a"/><line x1="532.0" y1="387.0" x2="532.0" y2="442.2" stroke="#2b3138" stroke-width="2"/><rect x="369.112" y="429.0" width="61.776" height="99.00000000000001" rx="5" fill="#9c3220"/><circle cx="418.01800000000003" cy="477.6" r="3" fill="#ecb98a"/><polygon points="182.2,348.0 400.0,186.0 617.8,348.0" fill="#a9422a"/><polygon points="182.2,348.0 400.0,186.0 617.8,348.0" fill="url(#tl)"/><polyline points="182.2,348.0 400.0,186.0 617.8,348.0" fill="none" stroke="#7d2f1d" stroke-width="6" stroke-linejoin="round"/><rect x="182.2" y="345.0" width="435.59999999999997" height="9" fill="#7d2f1d"/><rect x="487.12" y="194.1" width="27.720000000000002" height="89.10000000000001" fill="#e4d3b5"/><rect x="485.14" y="189.24" width="31.68" height="12.96" fill="#3a424b"/><polygon points="265.12,294.8727272727273 332.32,294.8727272727273 305.92,256.4727272727273" fill="#14181c" opacity=".78"/><g stroke="#8f6535" stroke-linecap="round"><line x1="605.8" y1="528.0" x2="569.8" y2="333.6" stroke-width="6"/><line x1="637.0" y1="528.0" x2="601.0" y2="333.6" stroke-width="6"/><line x1="601.8" y1="506.4" x2="633.0" y2="506.4" stroke-width="4"/><line x1="597.8" y1="484.8" x2="629.0" y2="484.8" stroke-width="4"/><line x1="593.8" y1="463.2" x2="625.0" y2="463.2" stroke-width="4"/><line x1="589.8" y1="441.6" x2="621.0" y2="441.6" stroke-width="4"/><line x1="585.8" y1="420.0" x2="617.0" y2="420.0" stroke-width="4"/><line x1="581.8" y1="398.4" x2="613.0" y2="398.4" stroke-width="4"/><line x1="577.8" y1="376.8" x2="609.0" y2="376.8" stroke-width="4"/><line x1="573.8" y1="355.2" x2="605.0" y2="355.2" stroke-width="4"/></g><g><rect x="580.5" y="383.7" width="11.3" height="45.3" rx="5.7" fill="#3a424b"/><rect x="595.8" y="383.7" width="11.3" height="45.3" rx="5.7" fill="#3a424b"/><rect x="579.0" y="356.2" width="29.5" height="33.5" rx="8.3" fill="#d98a4a"/><line x1="582.5" y1="363.1" x2="580.5" y2="387.7" stroke="#d98a4a" stroke-width="6.9" stroke-linecap="round"/><line x1="605.1" y1="363.1" x2="607.1" y2="387.7" stroke="#d98a4a" stroke-width="6.9" stroke-linecap="round"/><circle cx="593.8" cy="341.4" r="10.8" fill="#e8b98f"/><path d="M581.0 340.9 a12.8 12.8 0 0 1 25.5 0z" fill="#ffb000"/><rect x="578.6" y="340.1" width="30.3" height="2.4" rx="1.1" fill="#ffb000"/></g><g transform="translate(110.19999999999999 528.0) scale(0.96)"><rect x="-40" y="-8" width="80" height="8" fill="#8f6535"/><rect x="-36" y="-26" width="72" height="16" rx="3" fill="#c9482b" stroke="#9c3220" stroke-width="2"/><rect x="-36" y="-44" width="72" height="16" rx="3" fill="#c9482b" stroke="#9c3220" stroke-width="2"/><rect x="-36" y="-62" width="72" height="16" rx="3" fill="#c9482b" stroke="#9c3220" stroke-width="2"/></g><rect x="-55.9" y="402.0" width="20.2" height="126.0" fill="#6b4a2b"/><circle cx="-45.8" cy="361.7" r="75.6" fill="#5c8f45" opacity="1"/><circle cx="-96.2" cy="386.9" r="52.9" fill="#5c8f45" opacity="1"/><circle cx="4.6" cy="386.9" r="52.9" fill="#5c8f45" opacity="1"/><circle cx="-60.9" cy="336.5" r="42.8" fill="#7fae5f" opacity="0.5"/><rect x="836.7" y="414.0" width="18.2" height="114.0" fill="#6b4a2b"/><circle cx="845.8" cy="377.5" r="68.4" fill="#5c8f45" opacity="1"/><circle cx="800.2" cy="400.3" r="47.9" fill="#5c8f45" opacity="1"/><circle cx="891.4" cy="400.3" r="47.9" fill="#5c8f45" opacity="1"/><circle cx="832.1" cy="354.7" r="38.8" fill="#7fae5f" opacity="0.5"/>
</svg>
